<svg width="70" height="57" viewBox="0 0 70 57" fill="none" xmlns="http://www.w3.org/2000/svg">
<path d="M34.1517 8.38135C27.8638 8.38135 22.7518 13.4933 22.7518 19.7813C22.7518 25.9492 27.5758 30.9412 33.8637 31.1572C34.0557 31.1332 34.2477 31.1332 34.3917 31.1572C34.4397 31.1572 34.4637 31.1572 34.5117 31.1572C34.5357 31.1572 34.5357 31.1572 34.5597 31.1572C40.7037 30.9412 45.5276 25.9492 45.5516 19.7813C45.5516 13.4933 40.4397 8.38135 34.1517 8.38135Z" fill="#A3A3A3"/>
<path d="M48.511 37.5416C40.6246 33.0776 27.7633 33.0776 19.8204 37.5416C16.2305 39.5816 14.2518 42.3415 14.2518 45.2935C14.2518 48.2455 16.2305 50.9815 19.7921 52.9974C23.7495 55.2534 28.9505 56.3814 34.1516 56.3814C39.3526 56.3814 44.5536 55.2534 48.511 52.9974C52.0726 50.9575 54.0513 48.2215 54.0513 45.2455C54.023 42.2935 52.0726 39.5576 48.511 37.5416Z" fill="#A3A3A3"/>
<path d="M59.7692 25.7759C64.6118 25.7759 68.5384 22.0202 68.5384 17.388C68.5384 12.7558 64.6118 9 59.7692 9C54.9267 9 51 12.7558 51 17.388C51 19.5271 51.837 21.4782 53.2147 22.9596C53.6356 23.4141 53.9357 24.017 53.7857 24.628C53.6214 25.2962 53.3139 25.9167 52.8864 26.4429C53.2285 26.5071 53.5755 26.539 53.9231 26.5384C55.1722 26.5384 56.3297 26.1297 57.2797 25.4332C58.069 25.657 58.905 25.7759 59.7692 25.7759Z" fill="#A3A3A3" stroke="#A3A3A3" stroke-width="1.98462" stroke-linecap="round" stroke-linejoin="round"/>
<circle cx="55.437" cy="17.7703" r="1.5" fill="white"/>
<circle cx="59.7704" cy="17.7703" r="1.5" fill="white"/>
<circle cx="64.1036" cy="17.7703" r="1.5" fill="white"/>
</svg>
