<svg width="20" height="20" viewBox="0 0 20 20" fill="none" xmlns="http://www.w3.org/2000/svg">
<path d="M7.11231 17.4843C7.18352 17.5541 7.25388 17.6228 7.32326 17.6902C7.34014 17.7066 7.35698 17.7228 7.37374 17.7388M7.11231 17.4843C4.65539 15.0765 1.17803 11.2868 2.17517 6.84247C3.93283 -0.953488 15.38 -0.944485 17.1287 6.85147C18.1547 11.4246 14.4431 15.2956 11.9717 17.6902C10.1951 19.4202 9.14537 19.4364 7.37374 17.7388M7.11231 17.4843L7.37374 17.7388" stroke="black" stroke-width="1.5"/>
<path d="M9.65096 10.0011C10.8939 10.0011 11.9015 8.99352 11.9015 7.75056C11.9015 6.50761 10.8939 5.5 9.65096 5.5C8.408 5.5 7.40039 6.50761 7.40039 7.75056C7.40039 8.99352 8.408 10.0011 9.65096 10.0011Z" stroke="black" stroke-width="1.5"/>
</svg>
