<svg width="72" height="72" viewBox="0 0 72 72" fill="none" xmlns="http://www.w3.org/2000/svg">
<g clip-path="url(#clip0_139_3791)">
<path d="M60.5162 32.4937H11.4855C7.30876 32.4937 3.91168 35.8912 3.91168 40.068V47.0829V49.3296L6.1344 49.6477C7.41901 49.8319 8.38862 50.9496 8.38862 52.2468C8.38862 53.5441 7.41957 54.6618 6.13553 54.8459L3.91168 55.1639V57.4109V64.4269C3.91168 68.6025 7.30876 72.0001 11.4855 72.0001H60.5162C64.6929 72.0001 68.0905 68.6025 68.0905 64.4269V57.4578V54.9845L65.6196 54.8689C64.2159 54.8038 63.1154 53.6518 63.1154 52.247C63.1154 50.8432 64.2159 49.6912 65.6206 49.6249L68.0905 49.5082V47.036V40.068C68.0905 35.8912 64.6929 32.4937 60.5162 32.4937ZM65.4983 47.036C62.7299 47.1676 60.5242 49.4463 60.5242 52.247C60.5242 55.0486 62.7299 57.3285 65.4983 57.4578V64.4269C65.4983 67.1782 63.2674 69.409 60.5162 69.409H11.4855C8.73357 69.409 6.50284 67.1782 6.50284 64.4269V57.4109C9.03282 57.0482 10.9798 54.8781 10.9798 52.2468C10.9798 49.6167 9.03268 47.4466 6.50284 47.0829V40.068C6.50284 37.3155 8.73357 35.0848 11.4855 35.0848H60.5162C63.2674 35.0848 65.4983 37.3155 65.4983 40.068V47.036Z" fill="black"/>
<path d="M20.5047 61.7935H18.7905V66.2653H20.5047V61.7935Z" fill="black"/>
<path d="M20.5047 53.939H18.7905V58.4097H20.5047V53.939Z" fill="black"/>
<path d="M20.5047 46.083H18.7905V50.5549H20.5047V46.083Z" fill="black"/>
<path d="M20.5047 38.2285H18.7905V42.7002H20.5047V38.2285Z" fill="black"/>
<path d="M15.6439 25.4189L14.1458 26.2517L16.32 30.1584L17.8175 29.3256L15.6439 25.4189Z" fill="black"/>
<path d="M69.9643 25.1754L66.576 19.0848L65.3725 16.9248L63.1578 18.0253C61.8995 18.65 60.3779 18.1786 59.696 16.9511C59.0119 15.7247 59.4146 14.1826 60.609 13.4425L62.7116 12.1395L61.5081 9.97833L58.1208 3.89011C56.0901 0.241034 51.4696 -1.0769 47.8191 0.954847L4.97449 24.792C1.32457 26.8227 0.0078963 31.4443 2.03852 35.0937L2.16157 35.3156C2.62141 34.4164 3.20641 33.5939 3.89463 32.8674C3.21921 30.6676 4.14241 28.2206 6.23407 27.056L49.0798 3.21863C51.4845 1.88016 54.5184 2.745 55.8568 5.14969L59.2442 11.239C56.8886 12.6987 56.0696 15.7646 57.4309 18.2115C58.7922 20.6585 61.8283 21.5783 64.3109 20.3451L67.6993 26.4358C68.7221 28.2718 68.4498 30.4706 67.1971 32.0047C67.8687 32.5617 68.4612 33.2082 68.976 33.9128C71.0719 31.5737 71.5752 28.0709 69.9643 25.1754Z" fill="black"/>
</g>
<defs>
<clipPath id="clip0_139_3791">
<rect width="72" height="72" fill="white"/>
</clipPath>
</defs>
</svg>