<svg width="31" height="37" viewBox="0 0 31 37" fill="none" xmlns="http://www.w3.org/2000/svg">
<path d="M15.4996 2C19.3871 2 22.5494 5.16232 22.5494 9.0498C22.5316 12.8663 19.5582 15.9404 15.7692 16.082H15.7574C15.5846 16.0657 15.4136 16.0662 15.2565 16.0781C11.377 15.9051 8.44983 12.8313 8.44983 9.0498C8.4499 5.16236 11.6122 2.00007 15.4996 2Z" fill="#C5C5C5" stroke="#C5C5C5" stroke-width="2.99996"/>
<path d="M15.5262 21.3594C19.2342 21.3594 22.8532 22.1606 25.5302 23.6758C27.9261 25.0319 28.9067 26.67 28.9237 28.1562C28.9204 29.5508 28.0537 31.0759 25.9598 32.3984L25.5262 32.6592C22.8392 34.1909 19.211 35 15.4999 35C11.7887 35 8.16055 34.1909 5.47351 32.6592L5.4696 32.6572L5.03406 32.3984C2.93958 31.0887 2.07518 29.5621 2.07507 28.1846C2.07507 26.713 3.06087 25.0554 5.49207 23.6738C8.19193 22.1584 11.8215 21.3594 15.5262 21.3594Z" fill="#C5C5C5" stroke="#C5C5C5" stroke-width="2.99996"/>
</svg>
