<svg width="56" height="42" viewBox="0 0 56 42" fill="none" xmlns="http://www.w3.org/2000/svg">
<path d="M16.6316 20.9869V24.1579C16.6316 28.3261 16.6316 30.4101 17.9265 31.7051C19.2214 33 21.3055 33 25.4737 33H30.5263C34.6945 33 36.7786 33 38.0736 31.7051C39.3684 30.4101 39.3684 28.3261 39.3684 24.1579V20.9869C39.3684 18.8631 39.3684 17.8013 38.9189 16.8822C38.4693 15.963 37.6312 15.3111 35.9549 14.0073L33.4285 12.0424C30.8208 10.0141 29.5169 9 28 9C26.4831 9 25.1792 10.0141 22.5715 12.0424L20.0451 14.0073C18.3688 15.3111 17.5307 15.963 17.0811 16.8822C16.6316 17.8013 16.6316 18.8631 16.6316 20.9869Z" stroke="#848585" stroke-width="2" stroke-linecap="round" stroke-linejoin="round"/>
<path d="M23.9316 27H31.9316" stroke="#848585" stroke-width="2" stroke-linecap="round" stroke-linejoin="round"/>
</svg>
