<svg width="31" height="30" viewBox="0 0 31 30" fill="none" xmlns="http://www.w3.org/2000/svg">
<path d="M15.7008 13.5875C15.5758 13.575 15.4258 13.575 15.2883 13.5875C12.3133 13.4875 9.95084 11.05 9.95084 8.05C9.95084 4.9875 12.4258 2.5 15.5008 2.5C18.5633 2.5 21.0508 4.9875 21.0508 8.05C21.0383 11.05 18.6758 13.4875 15.7008 13.5875Z" stroke="#292D32" stroke-width="1.875" stroke-linecap="round" stroke-linejoin="round"/>
<path d="M9.45103 18.2C6.42603 20.225 6.42603 23.525 9.45103 25.5375C12.8885 27.8375 18.526 27.8375 21.9635 25.5375C24.9885 23.5125 24.9885 20.2125 21.9635 18.2C18.5385 15.9125 12.901 15.9125 9.45103 18.2Z" stroke="#292D32" stroke-width="1.875" stroke-linecap="round" stroke-linejoin="round"/>
</svg>