<svg width="13" height="11" viewBox="0 0 13 11" fill="none" xmlns="http://www.w3.org/2000/svg">
<path d="M6.19995 0C6.35155 7.36348e-05 6.50093 0.0403372 6.63159 0.117188C6.76223 0.194121 6.87044 0.305005 6.94409 0.4375L8.51147 3.25879L11.2029 2.0625C11.3475 1.99776 11.5078 1.9745 11.6648 1.99609C11.8216 2.01783 11.9699 2.08306 12.0916 2.18457C12.2138 2.28528 12.3057 2.41906 12.3562 2.56934C12.4065 2.71955 12.4135 2.88104 12.3767 3.03516L10.2996 9.55957C10.1336 10.0807 9.57937 10.3681 9.04761 10.2402C7.12179 9.35171 5.23633 9.32246 3.49976 10.1523C2.93478 10.3029 2.31689 10.0262 2.13452 9.4707L0.0222168 3.03516C-0.0140016 2.88094 -0.00574661 2.71951 0.0446777 2.56934C0.0951726 2.41916 0.186321 2.28563 0.30835 2.18457C0.430342 2.08362 0.578242 2.01868 0.735107 1.99707C0.891994 1.97553 1.0523 1.9982 1.19702 2.0625L3.88843 3.25879L5.45581 0.4375C5.52953 0.304999 5.63762 0.194089 5.76831 0.117188C5.89902 0.0403985 6.04835 0 6.19995 0ZM8.0437 7.31055C6.94985 6.98054 5.86222 6.91147 4.80542 7.11328C4.53438 7.16521 4.35624 7.42714 4.40796 7.69824C4.45974 7.96937 4.7218 8.14728 4.99292 8.0957C5.87899 7.92649 6.80297 7.9805 7.75464 8.26758C8.01896 8.34733 8.29786 8.19788 8.37769 7.93359C8.45744 7.66926 8.308 7.39036 8.0437 7.31055Z" fill="white"/>
</svg>
